<svg xmlns="http://www.w3.org/2000/svg" fill="#a0f" viewBox="0 0 64 64">
    <path
        d="m44.5 46.3-3.6-3.6c5.9-5.9 5.9-15.5 0-21.3l3.6-3.6c7.9 7.8 7.9 20.6 0 28.5zm-25 0c-3.8-3.8-5.9-8.9-5.9-14.3s2.1-10.5 5.9-14.3l3.6 3.6c-5.9 5.9-5.9 15.5 0 21.3l-3.6 3.7zm34.1 10.8L50 53.4c11.8-11.8 11.8-31 0-42.8L53.6 7c13.9 13.8 13.9 36.2 0 50.1zm-43.2 0C-3.5 43.2-3.5 20.8 10.4 7l3.6 3.6c-11.8 11.8-11.8 31 0 42.8l-3.6 3.7zM37.1 32c0 2.8-2.3 5.1-5.1 5.1s-5.1-2.3-5.1-5.1 2.3-5.1 5.1-5.1 5.1 2.3 5.1 5.1z" />
</svg>
