<?xml version="1.0" encoding="utf-8"?>
<!-- Generator: Adobe Illustrator 27.7.0, SVG Export Plug-In . SVG Version: 6.00 Build 0)  -->
<svg version="1.2" baseProfile="tiny"
	 id="Layer_1" xmlns:sodipodi="http://sodipodi.sourceforge.net/DTD/sodipodi-0.dtd" xmlns:inkscape="http://www.inkscape.org/namespaces/inkscape" xmlns:svg="http://www.w3.org/2000/svg" sodipodi:docname="disconnectedIcon.svg"
	 xmlns="http://www.w3.org/2000/svg" xmlns:xlink="http://www.w3.org/1999/xlink" x="0px" y="0px" viewBox="0 0 64 64"
	 overflow="visible" xml:space="preserve">
<sodipodi:namedview  bordercolor="#eeeeee" borderopacity="1" id="namedview11" inkscape:current-layer="Layer_1" inkscape:cx="31.962834" inkscape:cy="32" inkscape:deskcolor="#505050" inkscape:pagecheckerboard="0" inkscape:pageopacity="0" inkscape:showpageshadow="0" inkscape:window-height="1057" inkscape:window-maximized="1" inkscape:window-width="1920" inkscape:window-x="-8" inkscape:window-y="-8" inkscape:zoom="13.453125" pagecolor="#505050">
	</sodipodi:namedview>
<g id="g11">
	<path id="path11" fill="none" stroke="#AA00FF" stroke-width="5" d="M32,61.5c13.45,0,25.19-9.1,28.57-22.12 M32,61.5
		c-13.45,0-25.19-9.1-28.57-22.12 M32,61.5c8.15,0,14.75-13.21,14.75-29.5S40.15,2.5,32,2.5 M32,61.5
		c-8.15,0-14.75-13.21-14.75-29.5S23.85,2.5,32,2.5 M32,2.5c10.65,0,20.48,5.74,25.71,15.02 M32,2.5
		c-10.65,0-20.48,5.74-25.71,15.02 M57.71,17.52c2.49,4.42,3.8,9.41,3.79,14.48c0,2.55-0.32,5.02-0.93,7.38 M60.57,39.38
		C51.83,44.23,42,46.76,32,46.75c-10.36,0-20.11-2.67-28.57-7.37 M3.43,39.38C2.81,36.97,2.5,34.49,2.5,32
		c-0.01-5.07,1.3-10.06,3.79-14.48 M60.57,24.65C51.83,19.8,41.99,17.27,32,17.29c-10.36,0-20.11,2.67-28.57,7.37 M2.5,32h59
		 M32,61.5v-59"/>
</g>
<circle id="circle11" fill="#FFFFFF" stroke="#AA00FF" stroke-width="5" cx="51.5" cy="51.5" r="10"/>
</svg>
