<svg xmlns="http://www.w3.org/2000/svg" viewBox="0 0 64 64" fill="none" stroke="#a0f" stroke-width="5">
    <path
        d="M39.5 32a7.5 7.5 0 0 1-7.5 7.5 7.5 7.5 0 0 1-7.5-7.5 7.5 7.5 0 0 1 7.5-7.5 7.5 7.5 0 0 1 7.5 7.5Zm13.26-4.37h8.74v8.74h-8.74l-2.995 7.209 6.186 6.195-6.186 6.177-6.187-6.177-7.208 2.987V61.5H27.63v-8.74l-7.218-2.995-6.186 6.186-6.177-6.186 6.177-6.186-2.987-7.208H2.5v-8.743h8.74l2.986-7.218-6.186-6.185 6.186-6.177 6.186 6.177 7.218-2.987V2.5h8.741v8.74l7.208 2.986 6.187-6.177 6.186 6.177-6.186 6.185z" />
</svg>
