<svg xmlns="http://www.w3.org/2000/svg" viewBox="0 0 64 64">
    <path d="M0 0h64v64H0Z" />
    <path fill="#a0f"
        d="m42.5 44.1-3-3.1c5-5 5-13 0-18l3.1-3.1c6.6 6.7 6.6 17.6-.1 24.2zm-21 0c-3.2-3.2-5-7.5-5-12.1s1.8-8.8 5-12.1l3.1 3.1c-5 5-5 13 0 18l-3.1 3.1zm28.8 9L47.2 50c10-10 10-26.2 0-36.1l3.1-3.1c11.6 11.7 11.6 30.7 0 42.3zm-36.6 0c-11.6-11.7-11.6-30.6 0-42.2l3.1 3.1c-10 10-10 26.2 0 36.1l-3.1 3zM36.3 32c0 2.4-1.9 4.3-4.3 4.3s-4.3-1.9-4.3-4.3 1.9-4.3 4.3-4.3 4.3 2 4.3 4.3z" />
</svg>
