<svg xmlns="http://www.w3.org/2000/svg" width="28" height="28" fill="#a0f">
    <path
        d="M7.49096615 5.69783974c.38123885.39959402.36635904 1.03258414-.03323499 1.41382299-.00812904.00775568-.00812904.00775568-.03267133.03122929-.01215178.01164544-.01215178.01164544-.0207762.01994854C5.55983883 8.94259169 4.49999827 11.3856632 4.49999827 14c0 2.6291092 1.07194099 5.0847935 2.93478724 6.8664615.39912387.3817311.41322354 1.014739.0314925 1.4138629s-1.01473901.4132235-1.41386288.0314925C3.79904105 20.1566392 2.49999827 17.1806928 2.49999827 14c0-3.1628015 1.28439668-6.12350436 3.51553744-8.27638813.01253596-.01206907.01253596-.01206907.02601783-.02498797.02670424-.02554196.02670424-.02554196.03558962-.03401915.39959403-.38123884 1.03258414-.36635904 1.41382299.03323499Zm13.01806595 0c.3812389-.39959403 1.014229-.41447383 1.413823-.03323499.0088854.00847719.0088854.00847719.0355896.03401915.0134819.0129189.0134819.0129189.0260179.02498797C24.2156033 7.87649564 25.5 10.8371985 25.5 14c0 3.1806928-1.2990428 6.1566392-3.5524169 8.3118169-.3991238.381731-1.0321318.3676314-1.4138628-.0314925-.3817311-.3991239-.3676314-1.0321318.0314925-1.4138629C22.428059 19.0847935 23.5 16.6291092 23.5 14c0-2.6143368-1.0598406-5.05740831-2.9042854-6.83715944-.0086244-.0083031-.0086244-.0083031-.0207762-.01994854-.0245423-.02347361-.0245423-.02347361-.0326713-.03122929-.399594-.38123885-.4144738-1.01422897-.033235-1.41382299Zm-9.6712767 3.39645291c.3744359.40597556.348868 1.03862415-.0571075 1.41306005C9.81082194 11.4018344 9.24999491 12.6547309 9.24999491 14c0 1.3449306.56054231 2.5975396 1.52994089 3.4919904.4058998.3745182.4313396 1.0071719.0568214 1.4130716-.3745181.4058998-1.00717181.4313396-1.41307156.0568214C8.04810767 17.6926564 7.24999491 15.9091636 7.24999491 14c0-1.9096451.79851716-3.6935451 2.17470041-4.96281486.40597556-.37443595 1.03862408-.34886805 1.41306008.05710751Zm6.3244841 0c.374436-.40597556 1.0070845-.43154346 1.4130601-.05710751C19.9514828 10.3064549 20.75 12.0903549 20.75 14c0 1.9091636-.7981128 3.6926564-2.1736907 4.9618834-.4058998.3745182-1.0385535.3490784-1.4130716-.0568214-.3745182-.4058997-.3490784-1.0385534.0568214-1.4130716C18.1894577 16.5975396 18.75 15.3449306 18.75 14c0-1.3452691-.560827-2.5981656-1.530653-3.4926473-.4059755-.3744359-.4315434-1.00708449-.0571075-1.41306005ZM14 11.75c1.2426407 0 2.25 1.0073593 2.25 2.25s-1.0073593 2.25-2.25 2.25-2.25-1.0073593-2.25-2.25 1.0073593-2.25 2.25-2.25Z" />
</svg>