<svg xmlns="http://www.w3.org/2000/svg" width="24" height="24" fill="#a0f">
    <path
        d="M12.25 4.0005137c.902 0 1.75.694 1.75 1.689V18.310514c0 .995-.848 1.689-1.75 1.689-.762 0-1.505-.28-2.063-.798l-4.24-3.935H4.14c-1.118 0-2.14-.856-2.14-2.05v-2.433c0-1.1950003 1.022-2.0500003 2.14-2.0500003h1.807l4.24-3.936a3.035 3.035 0 0 1 2.063-.797zm-.05 1.801a1.23 1.23 0 0 0-.789.316L6.912 10.293514a.9.9 0 0 1-.612.24H4.14c-.14 0-.34.085-.34.25v2.433c0 .166.2.25.34.25H6.3a.9.9 0 0 1 .612.241l4.5 4.175c.2.187.481.305.788.317zm7.338.464c1.52 1.527 2.462 3.527 2.462 5.7350003 0 2.208-.943 4.208-2.462 5.735a.90014943.90014943 0 1 1-1.276-1.27c1.227-1.233 1.938-2.79 1.938-4.465 0-1.674-.71-3.2320003-1.938-4.4650003a.90014943.90014943 0 1 1 1.276-1.27zm-2.551 3.053C17.613 10.058514 18 10.983514 18 12.000514s-.387 1.943-1.013 2.682a.90038492.90038492 0 0 1-1.374-1.164c.383-.451.587-.974.587-1.518s-.204-1.067-.587-1.518a.90038498.90038498 0 0 1 1.374-1.1640003z" />
</svg>