<svg xmlns="http://www.w3.org/2000/svg" width="24" height="24" fill="white">
    <path
        d="M5.30518 6.52883C5 7.12778 5 7.91185 5 9.48v5.04c0 1.5681 0 2.3522.30518 2.9512.26845.5268.69679.9552 1.22365 1.2236C7.12778 19 7.91185 19 9.48 19h5.04c1.5681 0 2.3522 0 2.9512-.3052.5268-.2684.9552-.6968 1.2236-1.2236C19 16.8722 19 16.0881 19 14.52V9.48c0-1.56815 0-2.35222-.3052-2.95117-.2684-.52686-.6968-.9552-1.2236-1.22365C16.8722 5 16.0881 5 14.52 5H9.48c-1.56815 0-2.35222 0-2.95117.30518-.52686.26845-.9552.69679-1.22365 1.22365z" />
</svg>