<svg xmlns="http://www.w3.org/2000/svg" width="24" height="24" fill="#550080">
    <path
        d="M6.252775 4.2640134a.9.9 0 0 1 1.272 0l12.2 12.2000006a.9.9 0 1 1-1.272 1.272l-2.464-2.463v3.038c0 .995-.848 1.689-1.75 1.689-.762 0-1.505-.28-2.063-.798l-4.24-3.935h-1.807c-1.118 0-2.14-.856-2.14-2.05v-2.433c0-1.1950006 1.022-2.0500006 2.14-2.0500006h1.807l.785-.73-2.468-2.468a.9.9 0 0 1 0-1.272zm3.751 5.024c-.368.335-.74.668-1.103 1.0050006a.9.9 0 0 1-.612.24h-2.16a.386.386 0 0 0-.265.097.208.208 0 0 0-.075.154v2.432c0 .047.019.101.075.154.058.054.15.097.265.097h2.16a.9.9 0 0 1 .612.24l4.5 4.175c.2.187.481.305.788.317v-4.726zm4.235-5.288c.902 0 1.75.694 1.75 1.689v2.321a.9.9 0 1 1-1.8 0v-2.21a1.23 1.23 0 0 0-.789.316l-.13.122a.90042004.90042004 0 1 1-1.225-1.32l.13-.12a3.035 3.035 0 0 1 2.064-.798z" />
</svg>